# xmcd
#
# Track frame offsets: 
#        150
#        17389
#        31468
#        48574
#        63994
#        79151
#        98632
#        119165
#        135692
#        150404
#        168686
#        182554
#        195270
#        210191
#        229575
#        245885
#        261711
#        279392
#        294561
#        308927
#        324365
#        338165
#
# Disc length: 4684 seconds
#
# Revision: 0
# Processed by: cddbd v1.5.2PL0 Copyright (c) Steve Scherf et al.
# Submitted via: ExactAudioCopy v1.0b3
#
DISCID=3a124a16
DTITLE=Diffie, Joe - Honky Tonk Attitude and Third Rock From The Sun
DYEAR=2013
DGENRE=Country
TTITLE0=Honky Tonk Attitude
TTITLE1=I'm Not Through Losin' You
TTITLE2=Prop Me Up Beside The Jukebox (If I Die)
TTITLE3=If I Had Any Pride Left At All
TTITLE4=I Can Walk The Line (If It Ain't Too Straight)
TTITLE5=Somewhere Under The Rainbow
TTITLE6=John Deere Green
TTITLE7=In My Own Backyard
TTITLE8=Here Comes That Train
TTITLE9=And That Was The Easy Part
TTITLE10=Cold Budweiser And A Sweet Tater
TTITLE11=Third Rock From The Sun
TTITLE12=I'm In Love With A Capital "U" (Special Extended Play Mix)
TTITLE13=That Road Not Taken
TTITLE14=Pickup Man
TTITLE15=So Help Me Girl
TTITLE16=Wild Blue Yonder
TTITLE17=I'd Like To Have A Problem Like That
TTITLE18=Junior's In Love
TTITLE19=From Here On Out
TTITLE20=Good Brown Gravy
TTITLE21=The Cows Came Home
EXTD=
EXTT0=
EXTT1=
EXTT2=
EXTT3=
EXTT4=
EXTT5=
EXTT6=
EXTT7=
EXTT8=
EXTT9=
EXTT10=
EXTT11=
EXTT12=
EXTT13=
EXTT14=
EXTT15=
EXTT16=
EXTT17=
EXTT18=
EXTT19=
EXTT20=
EXTT21=
PLAYORDER=
